<mxfile host="app.diagrams.net" agent="Mozilla/5.0 (Windows NT 10.0; Win64; x64; rv:135.0) Gecko/20100101 Firefox/135.0" version="26.0.16">
  <diagram name="1 oldal" id="YfMqQStd1jOVHiEIAoBQ">
    <mxGraphModel dx="2577" dy="2099" grid="1" gridSize="10" guides="1" tooltips="1" connect="1" arrows="1" fold="1" page="1" pageScale="1" pageWidth="827" pageHeight="1169" math="0" shadow="0">
      <root>
        <mxCell id="0" />
        <mxCell id="1" parent="0" />
        <mxCell id="fxpHEYfudscKSFKEsFCG-1" value="&lt;div&gt;Termék&lt;/div&gt;" style="rounded=0;whiteSpace=wrap;html=1;strokeWidth=2;" parent="1" vertex="1">
          <mxGeometry x="100" y="230" width="240" height="90" as="geometry" />
        </mxCell>
        <mxCell id="fxpHEYfudscKSFKEsFCG-2" value="gyártó" style="rounded=0;whiteSpace=wrap;html=1;strokeWidth=2;" parent="1" vertex="1">
          <mxGeometry x="630" y="230" width="240" height="90" as="geometry" />
        </mxCell>
        <mxCell id="fxpHEYfudscKSFKEsFCG-3" value="T-GY" style="rhombus;whiteSpace=wrap;html=1;strokeWidth=2;" parent="1" vertex="1">
          <mxGeometry x="440" y="235" width="80" height="80" as="geometry" />
        </mxCell>
        <mxCell id="fxpHEYfudscKSFKEsFCG-7" value="" style="endArrow=classic;html=1;rounded=0;" parent="1" source="fxpHEYfudscKSFKEsFCG-3" target="fxpHEYfudscKSFKEsFCG-2" edge="1">
          <mxGeometry width="50" height="50" relative="1" as="geometry">
            <mxPoint x="360" y="420" as="sourcePoint" />
            <mxPoint x="410" y="370" as="targetPoint" />
          </mxGeometry>
        </mxCell>
        <mxCell id="fxpHEYfudscKSFKEsFCG-8" value="telephely" style="ellipse;whiteSpace=wrap;html=1;" parent="1" vertex="1">
          <mxGeometry x="990" y="242.5" width="100" height="65" as="geometry" />
        </mxCell>
        <mxCell id="fxpHEYfudscKSFKEsFCG-11" value="&lt;u&gt;adószám&lt;/u&gt;" style="ellipse;whiteSpace=wrap;html=1;" parent="1" vertex="1">
          <mxGeometry x="590" y="370" width="100" height="60" as="geometry" />
        </mxCell>
        <mxCell id="fxpHEYfudscKSFKEsFCG-12" value="név" style="ellipse;whiteSpace=wrap;html=1;" parent="1" vertex="1">
          <mxGeometry x="820" y="370" width="100" height="60" as="geometry" />
        </mxCell>
        <mxCell id="fxpHEYfudscKSFKEsFCG-13" value="" style="endArrow=none;html=1;rounded=0;entryX=0.5;entryY=1;entryDx=0;entryDy=0;" parent="1" target="fxpHEYfudscKSFKEsFCG-2" edge="1">
          <mxGeometry width="50" height="50" relative="1" as="geometry">
            <mxPoint x="635" y="370" as="sourcePoint" />
            <mxPoint x="650" y="360" as="targetPoint" />
          </mxGeometry>
        </mxCell>
        <mxCell id="fxpHEYfudscKSFKEsFCG-14" value="" style="endArrow=none;html=1;rounded=0;entryX=0.5;entryY=1;entryDx=0;entryDy=0;" parent="1" source="fxpHEYfudscKSFKEsFCG-12" target="fxpHEYfudscKSFKEsFCG-2" edge="1">
          <mxGeometry width="50" height="50" relative="1" as="geometry">
            <mxPoint x="750" y="370" as="sourcePoint" />
            <mxPoint x="650" y="360" as="targetPoint" />
          </mxGeometry>
        </mxCell>
        <mxCell id="rk8ISG-HkTGHiSm7UP73-1" value="&lt;div&gt;ear&lt;/div&gt;" style="ellipse;whiteSpace=wrap;html=1;" vertex="1" parent="1">
          <mxGeometry x="294" y="372.5" width="120" height="55" as="geometry" />
        </mxCell>
        <mxCell id="rk8ISG-HkTGHiSm7UP73-2" value="&lt;div&gt;név&lt;/div&gt;" style="ellipse;whiteSpace=wrap;html=1;" vertex="1" parent="1">
          <mxGeometry x="165" y="372.5" width="110" height="55" as="geometry" />
        </mxCell>
        <mxCell id="rk8ISG-HkTGHiSm7UP73-3" value="tkód" style="ellipse;whiteSpace=wrap;html=1;" vertex="1" parent="1">
          <mxGeometry x="40" y="375" width="110" height="50" as="geometry" />
        </mxCell>
        <mxCell id="rk8ISG-HkTGHiSm7UP73-8" value="" style="endArrow=none;html=1;rounded=0;exitX=0.5;exitY=1;exitDx=0;exitDy=0;entryX=0.5;entryY=0;entryDx=0;entryDy=0;" edge="1" parent="1" source="fxpHEYfudscKSFKEsFCG-1" target="rk8ISG-HkTGHiSm7UP73-1">
          <mxGeometry width="50" height="50" relative="1" as="geometry">
            <mxPoint x="470" y="460" as="sourcePoint" />
            <mxPoint x="520" y="410" as="targetPoint" />
          </mxGeometry>
        </mxCell>
        <mxCell id="rk8ISG-HkTGHiSm7UP73-9" value="" style="endArrow=none;html=1;rounded=0;entryX=0.5;entryY=1;entryDx=0;entryDy=0;exitX=0.5;exitY=0;exitDx=0;exitDy=0;" edge="1" parent="1" source="rk8ISG-HkTGHiSm7UP73-2" target="fxpHEYfudscKSFKEsFCG-1">
          <mxGeometry width="50" height="50" relative="1" as="geometry">
            <mxPoint x="470" y="460" as="sourcePoint" />
            <mxPoint x="520" y="410" as="targetPoint" />
          </mxGeometry>
        </mxCell>
        <mxCell id="rk8ISG-HkTGHiSm7UP73-10" value="" style="endArrow=none;html=1;rounded=0;entryX=0.5;entryY=1;entryDx=0;entryDy=0;exitX=0.5;exitY=0;exitDx=0;exitDy=0;" edge="1" parent="1" source="rk8ISG-HkTGHiSm7UP73-3" target="fxpHEYfudscKSFKEsFCG-1">
          <mxGeometry width="50" height="50" relative="1" as="geometry">
            <mxPoint x="470" y="460" as="sourcePoint" />
            <mxPoint x="520" y="410" as="targetPoint" />
          </mxGeometry>
        </mxCell>
        <mxCell id="rk8ISG-HkTGHiSm7UP73-11" value="" style="endArrow=none;html=1;rounded=0;entryX=1;entryY=0.5;entryDx=0;entryDy=0;exitX=0;exitY=0.5;exitDx=0;exitDy=0;" edge="1" parent="1" source="fxpHEYfudscKSFKEsFCG-8" target="fxpHEYfudscKSFKEsFCG-2">
          <mxGeometry width="50" height="50" relative="1" as="geometry">
            <mxPoint x="470" y="460" as="sourcePoint" />
            <mxPoint x="520" y="410" as="targetPoint" />
          </mxGeometry>
        </mxCell>
        <mxCell id="rk8ISG-HkTGHiSm7UP73-13" value="T_A" style="rhombus;whiteSpace=wrap;html=1;strokeWidth=2;" vertex="1" parent="1">
          <mxGeometry x="180" y="100" width="80" height="80" as="geometry" />
        </mxCell>
        <mxCell id="rk8ISG-HkTGHiSm7UP73-14" value="" style="endArrow=classic;html=1;rounded=0;exitX=0.5;exitY=1;exitDx=0;exitDy=0;entryX=0.5;entryY=0;entryDx=0;entryDy=0;" edge="1" parent="1" source="rk8ISG-HkTGHiSm7UP73-13" target="fxpHEYfudscKSFKEsFCG-1">
          <mxGeometry width="50" height="50" relative="1" as="geometry">
            <mxPoint x="470" y="300" as="sourcePoint" />
            <mxPoint x="590" y="-20" as="targetPoint" />
          </mxGeometry>
        </mxCell>
        <mxCell id="rk8ISG-HkTGHiSm7UP73-17" value="Postacím" style="ellipse;whiteSpace=wrap;html=1;" vertex="1" parent="1">
          <mxGeometry x="700" y="372.5" width="100" height="60" as="geometry" />
        </mxCell>
        <mxCell id="rk8ISG-HkTGHiSm7UP73-18" value="" style="endArrow=none;html=1;rounded=0;entryX=0.5;entryY=0;entryDx=0;entryDy=0;exitX=0.5;exitY=1;exitDx=0;exitDy=0;" edge="1" parent="1" source="fxpHEYfudscKSFKEsFCG-2" target="rk8ISG-HkTGHiSm7UP73-17">
          <mxGeometry width="50" height="50" relative="1" as="geometry">
            <mxPoint x="470" y="300" as="sourcePoint" />
            <mxPoint x="520" y="250" as="targetPoint" />
          </mxGeometry>
        </mxCell>
        <mxCell id="rk8ISG-HkTGHiSm7UP73-19" value="Irszám" style="ellipse;whiteSpace=wrap;html=1;" vertex="1" parent="1">
          <mxGeometry x="595" y="470" width="90" height="40" as="geometry" />
        </mxCell>
        <mxCell id="rk8ISG-HkTGHiSm7UP73-20" value="Város" style="ellipse;whiteSpace=wrap;html=1;" vertex="1" parent="1">
          <mxGeometry x="705" y="470" width="90" height="40" as="geometry" />
        </mxCell>
        <mxCell id="rk8ISG-HkTGHiSm7UP73-21" value="hazszam" style="ellipse;whiteSpace=wrap;html=1;" vertex="1" parent="1">
          <mxGeometry x="825" y="470" width="90" height="40" as="geometry" />
        </mxCell>
        <mxCell id="rk8ISG-HkTGHiSm7UP73-23" value="" style="endArrow=none;html=1;rounded=0;exitX=0.5;exitY=0;exitDx=0;exitDy=0;entryX=0.5;entryY=1;entryDx=0;entryDy=0;" edge="1" parent="1" source="rk8ISG-HkTGHiSm7UP73-20" target="rk8ISG-HkTGHiSm7UP73-17">
          <mxGeometry width="50" height="50" relative="1" as="geometry">
            <mxPoint x="480" y="300" as="sourcePoint" />
            <mxPoint x="530" y="250" as="targetPoint" />
          </mxGeometry>
        </mxCell>
        <mxCell id="rk8ISG-HkTGHiSm7UP73-24" value="" style="endArrow=none;html=1;rounded=0;exitX=0.5;exitY=0;exitDx=0;exitDy=0;entryX=0.5;entryY=1;entryDx=0;entryDy=0;" edge="1" parent="1" source="rk8ISG-HkTGHiSm7UP73-19" target="rk8ISG-HkTGHiSm7UP73-17">
          <mxGeometry width="50" height="50" relative="1" as="geometry">
            <mxPoint x="480" y="300" as="sourcePoint" />
            <mxPoint x="530" y="250" as="targetPoint" />
          </mxGeometry>
        </mxCell>
        <mxCell id="rk8ISG-HkTGHiSm7UP73-25" value="" style="endArrow=none;html=1;rounded=0;entryX=0.5;entryY=0;entryDx=0;entryDy=0;exitX=0.5;exitY=1;exitDx=0;exitDy=0;" edge="1" parent="1" source="rk8ISG-HkTGHiSm7UP73-17" target="rk8ISG-HkTGHiSm7UP73-21">
          <mxGeometry width="50" height="50" relative="1" as="geometry">
            <mxPoint x="480" y="300" as="sourcePoint" />
            <mxPoint x="530" y="250" as="targetPoint" />
          </mxGeometry>
        </mxCell>
        <mxCell id="rk8ISG-HkTGHiSm7UP73-26" value="" style="ellipse;whiteSpace=wrap;html=1;" vertex="1" parent="1">
          <mxGeometry x="-80" y="150" width="120" height="80" as="geometry" />
        </mxCell>
        <mxCell id="rk8ISG-HkTGHiSm7UP73-27" value="Egység_db" style="ellipse;whiteSpace=wrap;html=1;" vertex="1" parent="1">
          <mxGeometry x="-75" y="155" width="110" height="70" as="geometry" />
        </mxCell>
        <mxCell id="rk8ISG-HkTGHiSm7UP73-28" value="" style="endArrow=classic;html=1;rounded=0;entryX=1;entryY=0.5;entryDx=0;entryDy=0;exitX=0;exitY=0.5;exitDx=0;exitDy=0;" edge="1" parent="1" source="fxpHEYfudscKSFKEsFCG-3" target="fxpHEYfudscKSFKEsFCG-1">
          <mxGeometry width="50" height="50" relative="1" as="geometry">
            <mxPoint x="480" y="300" as="sourcePoint" />
            <mxPoint x="530" y="250" as="targetPoint" />
          </mxGeometry>
        </mxCell>
        <mxCell id="rk8ISG-HkTGHiSm7UP73-30" value="" style="endArrow=classic;html=1;rounded=0;exitX=0;exitY=0.5;exitDx=0;exitDy=0;" edge="1" parent="1" source="fxpHEYfudscKSFKEsFCG-3">
          <mxGeometry width="50" height="50" relative="1" as="geometry">
            <mxPoint x="480" y="480" as="sourcePoint" />
            <mxPoint x="350" y="275" as="targetPoint" />
          </mxGeometry>
        </mxCell>
        <mxCell id="rk8ISG-HkTGHiSm7UP73-31" value="" style="endArrow=none;html=1;rounded=0;entryX=0;entryY=0.5;entryDx=0;entryDy=0;exitX=1;exitY=0.5;exitDx=0;exitDy=0;" edge="1" parent="1" source="rk8ISG-HkTGHiSm7UP73-26" target="fxpHEYfudscKSFKEsFCG-1">
          <mxGeometry width="50" height="50" relative="1" as="geometry">
            <mxPoint x="410" y="370" as="sourcePoint" />
            <mxPoint x="460" y="320" as="targetPoint" />
          </mxGeometry>
        </mxCell>
        <mxCell id="rk8ISG-HkTGHiSm7UP73-33" value="" style="endArrow=classic;html=1;rounded=0;exitX=0.5;exitY=1;exitDx=0;exitDy=0;" edge="1" parent="1" source="rk8ISG-HkTGHiSm7UP73-13">
          <mxGeometry width="50" height="50" relative="1" as="geometry">
            <mxPoint x="520" y="360" as="sourcePoint" />
            <mxPoint x="220" y="220" as="targetPoint" />
          </mxGeometry>
        </mxCell>
        <mxCell id="rk8ISG-HkTGHiSm7UP73-34" value="Alkatrész" style="rounded=0;whiteSpace=wrap;html=1;strokeWidth=2;" vertex="1" parent="1">
          <mxGeometry x="100" y="-45" width="240" height="90" as="geometry" />
        </mxCell>
        <mxCell id="rk8ISG-HkTGHiSm7UP73-35" value="" style="endArrow=classic;html=1;rounded=0;exitX=0.5;exitY=0;exitDx=0;exitDy=0;entryX=0.5;entryY=1;entryDx=0;entryDy=0;" edge="1" parent="1" source="rk8ISG-HkTGHiSm7UP73-13" target="rk8ISG-HkTGHiSm7UP73-34">
          <mxGeometry width="50" height="50" relative="1" as="geometry">
            <mxPoint x="520" y="190" as="sourcePoint" />
            <mxPoint x="570" y="140" as="targetPoint" />
          </mxGeometry>
        </mxCell>
        <mxCell id="rk8ISG-HkTGHiSm7UP73-36" value="" style="endArrow=classic;html=1;rounded=0;exitX=0.5;exitY=0;exitDx=0;exitDy=0;" edge="1" parent="1" source="rk8ISG-HkTGHiSm7UP73-13">
          <mxGeometry width="50" height="50" relative="1" as="geometry">
            <mxPoint x="520" y="190" as="sourcePoint" />
            <mxPoint x="220" y="60" as="targetPoint" />
          </mxGeometry>
        </mxCell>
        <mxCell id="rk8ISG-HkTGHiSm7UP73-37" value="Név" style="ellipse;whiteSpace=wrap;html=1;" vertex="1" parent="1">
          <mxGeometry x="414" y="-20" width="90" height="40" as="geometry" />
        </mxCell>
        <mxCell id="rk8ISG-HkTGHiSm7UP73-39" value="&lt;u&gt;Akód&lt;/u&gt;" style="ellipse;whiteSpace=wrap;html=1;" vertex="1" parent="1">
          <mxGeometry x="-50" y="-20" width="90" height="40" as="geometry" />
        </mxCell>
        <mxCell id="rk8ISG-HkTGHiSm7UP73-40" value="" style="endArrow=none;html=1;rounded=0;entryX=0;entryY=0.5;entryDx=0;entryDy=0;exitX=1;exitY=0.5;exitDx=0;exitDy=0;" edge="1" parent="1" source="rk8ISG-HkTGHiSm7UP73-34" target="rk8ISG-HkTGHiSm7UP73-37">
          <mxGeometry width="50" height="50" relative="1" as="geometry">
            <mxPoint x="520" y="260" as="sourcePoint" />
            <mxPoint x="570" y="210" as="targetPoint" />
          </mxGeometry>
        </mxCell>
        <mxCell id="rk8ISG-HkTGHiSm7UP73-41" value="" style="endArrow=none;html=1;rounded=0;entryX=0;entryY=0.5;entryDx=0;entryDy=0;exitX=1;exitY=0.5;exitDx=0;exitDy=0;" edge="1" parent="1" source="rk8ISG-HkTGHiSm7UP73-39" target="rk8ISG-HkTGHiSm7UP73-34">
          <mxGeometry width="50" height="50" relative="1" as="geometry">
            <mxPoint x="520" y="260" as="sourcePoint" />
            <mxPoint x="570" y="210" as="targetPoint" />
          </mxGeometry>
        </mxCell>
        <mxCell id="rk8ISG-HkTGHiSm7UP73-42" value="Én" style="shape=umlActor;verticalLabelPosition=bottom;verticalAlign=top;html=1;outlineConnect=0;" vertex="1" parent="1">
          <mxGeometry x="750" y="10" width="30" height="60" as="geometry" />
        </mxCell>
        <mxCell id="rk8ISG-HkTGHiSm7UP73-43" value="" style="endArrow=none;html=1;rounded=0;" edge="1" parent="1">
          <mxGeometry width="50" height="50" relative="1" as="geometry">
            <mxPoint x="800" y="80" as="sourcePoint" />
            <mxPoint x="800" y="-30" as="targetPoint" />
          </mxGeometry>
        </mxCell>
        <mxCell id="rk8ISG-HkTGHiSm7UP73-44" value="" style="endArrow=none;html=1;rounded=0;exitX=0.5;exitY=0;exitDx=0;exitDy=0;exitPerimeter=0;" edge="1" parent="1" source="rk8ISG-HkTGHiSm7UP73-42">
          <mxGeometry width="50" height="50" relative="1" as="geometry">
            <mxPoint x="760" as="sourcePoint" />
            <mxPoint x="800" y="-30" as="targetPoint" />
            <Array as="points">
              <mxPoint x="765" y="-30" />
            </Array>
          </mxGeometry>
        </mxCell>
        <mxCell id="rk8ISG-HkTGHiSm7UP73-48" value="" style="endArrow=classic;startArrow=classic;html=1;rounded=0;exitX=1;exitY=0.5;exitDx=0;exitDy=0;" edge="1" parent="1" source="rk8ISG-HkTGHiSm7UP73-49">
          <mxGeometry width="50" height="50" relative="1" as="geometry">
            <mxPoint x="510" y="360" as="sourcePoint" />
            <mxPoint x="100" y="275" as="targetPoint" />
          </mxGeometry>
        </mxCell>
        <mxCell id="rk8ISG-HkTGHiSm7UP73-49" value="Rendelés" style="rounded=0;whiteSpace=wrap;html=1;strokeWidth=2;" vertex="1" parent="1">
          <mxGeometry x="-430" y="230" width="240" height="90" as="geometry" />
        </mxCell>
        <mxCell id="rk8ISG-HkTGHiSm7UP73-50" value="" style="endArrow=classic;startArrow=classic;html=1;rounded=0;" edge="1" parent="1">
          <mxGeometry width="50" height="50" relative="1" as="geometry">
            <mxPoint x="-180" y="275" as="sourcePoint" />
            <mxPoint x="90" y="275" as="targetPoint" />
          </mxGeometry>
        </mxCell>
        <mxCell id="rk8ISG-HkTGHiSm7UP73-47" value="R-T" style="rhombus;whiteSpace=wrap;html=1;strokeWidth=2;" vertex="1" parent="1">
          <mxGeometry x="-80" y="235" width="80" height="80" as="geometry" />
        </mxCell>
        <mxCell id="rk8ISG-HkTGHiSm7UP73-51" value="&lt;u&gt;Rkód&lt;/u&gt;" style="ellipse;whiteSpace=wrap;html=1;" vertex="1" parent="1">
          <mxGeometry x="-580" y="242.5" width="100" height="65" as="geometry" />
        </mxCell>
        <mxCell id="rk8ISG-HkTGHiSm7UP73-58" value="&lt;div&gt;darabszám&lt;/div&gt;" style="ellipse;whiteSpace=wrap;html=1;" vertex="1" parent="1">
          <mxGeometry x="-236" y="372.5" width="120" height="55" as="geometry" />
        </mxCell>
        <mxCell id="rk8ISG-HkTGHiSm7UP73-59" value="&lt;div&gt;ar&lt;/div&gt;" style="ellipse;whiteSpace=wrap;html=1;dashed=1;dashPattern=12 12;" vertex="1" parent="1">
          <mxGeometry x="-365" y="372.5" width="110" height="55" as="geometry" />
        </mxCell>
        <mxCell id="rk8ISG-HkTGHiSm7UP73-60" value="dátum" style="ellipse;whiteSpace=wrap;html=1;" vertex="1" parent="1">
          <mxGeometry x="-490" y="375" width="110" height="50" as="geometry" />
        </mxCell>
        <mxCell id="rk8ISG-HkTGHiSm7UP73-61" value="" style="endArrow=none;html=1;rounded=0;exitX=0.5;exitY=1;exitDx=0;exitDy=0;entryX=0.5;entryY=0;entryDx=0;entryDy=0;" edge="1" parent="1" target="rk8ISG-HkTGHiSm7UP73-58">
          <mxGeometry width="50" height="50" relative="1" as="geometry">
            <mxPoint x="-310" y="320" as="sourcePoint" />
            <mxPoint x="-10" y="410" as="targetPoint" />
          </mxGeometry>
        </mxCell>
        <mxCell id="rk8ISG-HkTGHiSm7UP73-62" value="" style="endArrow=none;html=1;rounded=0;entryX=0.5;entryY=1;entryDx=0;entryDy=0;exitX=0.5;exitY=0;exitDx=0;exitDy=0;" edge="1" parent="1" source="rk8ISG-HkTGHiSm7UP73-59">
          <mxGeometry width="50" height="50" relative="1" as="geometry">
            <mxPoint x="-60" y="460" as="sourcePoint" />
            <mxPoint x="-310" y="320" as="targetPoint" />
          </mxGeometry>
        </mxCell>
        <mxCell id="rk8ISG-HkTGHiSm7UP73-63" value="" style="endArrow=none;html=1;rounded=0;entryX=0.5;entryY=1;entryDx=0;entryDy=0;exitX=0.5;exitY=0;exitDx=0;exitDy=0;" edge="1" parent="1" source="rk8ISG-HkTGHiSm7UP73-60">
          <mxGeometry width="50" height="50" relative="1" as="geometry">
            <mxPoint x="-60" y="460" as="sourcePoint" />
            <mxPoint x="-310" y="320" as="targetPoint" />
          </mxGeometry>
        </mxCell>
        <mxCell id="rk8ISG-HkTGHiSm7UP73-65" value="" style="endArrow=none;html=1;rounded=0;exitX=1;exitY=0.5;exitDx=0;exitDy=0;entryX=0;entryY=0.5;entryDx=0;entryDy=0;" edge="1" parent="1" source="rk8ISG-HkTGHiSm7UP73-51" target="rk8ISG-HkTGHiSm7UP73-49">
          <mxGeometry width="50" height="50" relative="1" as="geometry">
            <mxPoint x="-280" y="300" as="sourcePoint" />
            <mxPoint x="-230" y="250" as="targetPoint" />
          </mxGeometry>
        </mxCell>
        <mxCell id="rk8ISG-HkTGHiSm7UP73-67" value="Vevő" style="rounded=0;whiteSpace=wrap;html=1;strokeWidth=2;" vertex="1" parent="1">
          <mxGeometry x="-430" y="-80" width="240" height="90" as="geometry" />
        </mxCell>
        <mxCell id="rk8ISG-HkTGHiSm7UP73-69" value="" style="endArrow=classic;startArrow=classic;html=1;rounded=0;exitX=0.5;exitY=0;exitDx=0;exitDy=0;entryX=0.5;entryY=1;entryDx=0;entryDy=0;" edge="1" parent="1" source="rk8ISG-HkTGHiSm7UP73-49" target="rk8ISG-HkTGHiSm7UP73-67">
          <mxGeometry width="50" height="50" relative="1" as="geometry">
            <mxPoint x="-330" y="90" as="sourcePoint" />
            <mxPoint x="-280" y="40" as="targetPoint" />
          </mxGeometry>
        </mxCell>
        <mxCell id="rk8ISG-HkTGHiSm7UP73-70" value="" style="endArrow=classic;html=1;rounded=0;exitX=0.5;exitY=1;exitDx=0;exitDy=0;" edge="1" parent="1" source="rk8ISG-HkTGHiSm7UP73-67">
          <mxGeometry width="50" height="50" relative="1" as="geometry">
            <mxPoint x="-330" y="90" as="sourcePoint" />
            <mxPoint x="-310" y="220" as="targetPoint" />
          </mxGeometry>
        </mxCell>
        <mxCell id="rk8ISG-HkTGHiSm7UP73-66" value="R-T" style="rhombus;whiteSpace=wrap;html=1;strokeWidth=2;" vertex="1" parent="1">
          <mxGeometry x="-350" y="80" width="80" height="80" as="geometry" />
        </mxCell>
        <mxCell id="rk8ISG-HkTGHiSm7UP73-71" value="varos" style="ellipse;whiteSpace=wrap;html=1;direction=east;" vertex="1" parent="1">
          <mxGeometry x="-455" y="-203" width="90" height="40" as="geometry" />
        </mxCell>
        <mxCell id="rk8ISG-HkTGHiSm7UP73-72" value="irszám" style="ellipse;whiteSpace=wrap;html=1;direction=east;" vertex="1" parent="1">
          <mxGeometry x="-355" y="-203" width="90" height="40" as="geometry" />
        </mxCell>
        <mxCell id="rk8ISG-HkTGHiSm7UP73-73" value="utca" style="ellipse;whiteSpace=wrap;html=1;direction=east;" vertex="1" parent="1">
          <mxGeometry x="-255" y="-203" width="90" height="40" as="geometry" />
        </mxCell>
        <mxCell id="rk8ISG-HkTGHiSm7UP73-74" value="" style="endArrow=none;html=1;rounded=0;exitX=0.5;exitY=1;exitDx=0;exitDy=0;" edge="1" parent="1" source="rk8ISG-HkTGHiSm7UP73-72">
          <mxGeometry width="50" height="50" relative="1" as="geometry">
            <mxPoint x="-575" y="-373" as="sourcePoint" />
            <mxPoint x="-310" y="-80" as="targetPoint" />
          </mxGeometry>
        </mxCell>
        <mxCell id="rk8ISG-HkTGHiSm7UP73-75" value="" style="endArrow=none;html=1;rounded=0;exitX=0.5;exitY=1;exitDx=0;exitDy=0;entryX=0.5;entryY=0;entryDx=0;entryDy=0;" edge="1" parent="1" source="rk8ISG-HkTGHiSm7UP73-71" target="rk8ISG-HkTGHiSm7UP73-78">
          <mxGeometry width="50" height="50" relative="1" as="geometry">
            <mxPoint x="-575" y="-373" as="sourcePoint" />
            <mxPoint x="-320" y="-80" as="targetPoint" />
          </mxGeometry>
        </mxCell>
        <mxCell id="rk8ISG-HkTGHiSm7UP73-76" value="" style="endArrow=none;html=1;rounded=0;entryX=0.5;entryY=1;entryDx=0;entryDy=0;exitX=0.5;exitY=0;exitDx=0;exitDy=0;" edge="1" parent="1" target="rk8ISG-HkTGHiSm7UP73-73" source="rk8ISG-HkTGHiSm7UP73-78">
          <mxGeometry width="50" height="50" relative="1" as="geometry">
            <mxPoint x="-310" y="-80" as="sourcePoint" />
            <mxPoint x="-525" y="-423" as="targetPoint" />
          </mxGeometry>
        </mxCell>
        <mxCell id="rk8ISG-HkTGHiSm7UP73-78" value="Lakcím" style="ellipse;whiteSpace=wrap;html=1;direction=east;" vertex="1" parent="1">
          <mxGeometry x="-355" y="-140" width="90" height="40" as="geometry" />
        </mxCell>
        <mxCell id="rk8ISG-HkTGHiSm7UP73-79" value="varos" style="ellipse;whiteSpace=wrap;html=1;direction=east;" vertex="1" parent="1">
          <mxGeometry x="-575" y="-203" width="90" height="40" as="geometry" />
        </mxCell>
        <mxCell id="rk8ISG-HkTGHiSm7UP73-80" value="" style="endArrow=none;html=1;rounded=0;exitX=0.5;exitY=1;exitDx=0;exitDy=0;entryX=0.5;entryY=0;entryDx=0;entryDy=0;" edge="1" parent="1" source="rk8ISG-HkTGHiSm7UP73-79" target="rk8ISG-HkTGHiSm7UP73-67">
          <mxGeometry width="50" height="50" relative="1" as="geometry">
            <mxPoint x="-400" y="-153" as="sourcePoint" />
            <mxPoint x="-300" y="-130" as="targetPoint" />
          </mxGeometry>
        </mxCell>
        <mxCell id="rk8ISG-HkTGHiSm7UP73-81" value="&lt;u&gt;vkód&lt;/u&gt;" style="ellipse;whiteSpace=wrap;html=1;direction=east;" vertex="1" parent="1">
          <mxGeometry x="-575" y="-55" width="90" height="40" as="geometry" />
        </mxCell>
        <mxCell id="rk8ISG-HkTGHiSm7UP73-82" value="" style="endArrow=none;html=1;rounded=0;exitX=1;exitY=0.5;exitDx=0;exitDy=0;entryX=0;entryY=0.5;entryDx=0;entryDy=0;" edge="1" parent="1" source="rk8ISG-HkTGHiSm7UP73-81" target="rk8ISG-HkTGHiSm7UP73-67">
          <mxGeometry width="50" height="50" relative="1" as="geometry">
            <mxPoint x="-510" y="-60" as="sourcePoint" />
            <mxPoint x="-300" y="-70" as="targetPoint" />
          </mxGeometry>
        </mxCell>
      </root>
    </mxGraphModel>
  </diagram>
</mxfile>
